<svg width="1299" height="503" viewBox="0 0 1299 503" fill="none" xmlns="http://www.w3.org/2000/svg">
<style>path { fill: #111111; }</style>
<path d="M835.474 0.354083C861.349 -1.49362 893.434 3.92195 916.826 15.8521C955.714 35.6862 962.096 79.0648 940.361 115.425C902.689 178.433 829.556 218.927 766.159 252.374C747.664 262.136 722.021 274.163 702.169 279.716C694.976 295.115 688.016 314.56 681.994 330.645C666.656 371.255 653.216 412.557 641.719 454.417C638.276 467.309 635.704 480.456 632.704 493.451C632.096 496.056 631.826 497.489 629.824 498.68C620.056 498.65 619.454 481.64 619.199 474.472C618.685 477.914 618.131 483.572 616.664 486.511L615.652 486.639C608.981 483.229 610.31 472.129 607.847 466.975C607.601 469.214 607.624 469.119 606.612 471.134C605.82 470.441 605.284 469.877 604.871 468.888C593.455 441.576 644.329 315.41 656.126 283.19C651.791 282.409 635.569 278.913 635.801 273.394C638.486 270.126 657.634 265.887 663.589 263.962C668.569 253.554 675.416 234.645 680.291 222.938L716.194 137.359L727.849 109.049C730.384 102.859 732.409 94.5433 738.004 91.037C747.904 89.6814 777.559 98.163 772.489 112.458C768.109 124.797 760.939 138.332 755.636 150.651C742.924 179.928 730.661 209.395 718.834 239.04C730.736 234.254 751.406 223.379 763.834 215.936C821.426 180.296 894.439 134.833 919.826 69.3537C928.084 48.0462 909.154 33.678 890.156 29.5932C823.886 15.348 745.579 42.7642 688.391 74.8833C660.199 90.7212 621.751 118.685 607.817 148.163C604.167 155.955 616.063 158.262 613.769 164.446C599.138 175.616 575.963 147.629 576.512 134.155C577.84 101.524 620.522 72.0348 645.266 57.2367C703.196 23.3044 768.431 3.79517 835.474 0.354083Z" fill="#F5F1E8"/>
<path d="M257.821 87.6584C298.617 74.0156 339.809 61.5881 381.343 50.3923C441.898 33.9191 503.494 19.7361 566.015 13.268C583.045 11.5058 606.782 9.34905 623.539 11.7894L616.782 12.0805C621.208 12.4256 626.689 12.7174 630.994 13.3655C634.864 13.9484 635.884 13.8839 637.684 16.445C634.624 18.6753 582.15 24.9004 573.237 26.7068C567.044 27.2664 537.731 31.1689 533.932 35.0691C538.763 34.4397 543.783 33.1966 548.41 32.6685L549.298 33.9873C551.514 35.5124 572.808 31.6287 576.727 30.9101C581.452 30.3069 602.699 27.358 606.099 28.1006L606.047 28.8088C600.515 30.4787 591.267 31.547 585.138 32.9086C566.737 36.9971 546.706 39.9858 528.45 44.3991C514.003 46.5356 484.946 52.6751 471.122 56.9662L471.066 57.3465C485.009 56.111 518.63 46.2723 528.493 46.4336L529.136 46.9497C508.549 52.9152 483.214 57.9714 461.798 63.6953C409.685 77.681 358.061 93.4311 307.015 110.918C291.109 116.489 271.483 123.169 256.038 129.491C247.214 151.06 237.553 172.284 228.88 193.941C196.921 273.749 168.498 353.41 148.516 437.141C145.268 450.933 142.324 464.795 139.687 478.716C138.896 482.735 136.298 501.081 133.773 502.363C125.558 497.964 126.786 477.253 124.687 472.94C124.138 476.332 123.682 480.583 122.197 483.585L121.093 484.205C116.769 480.463 116.949 468.187 115.784 464.688C115.904 461.709 116.476 456.53 114.709 454.241C113.632 456.716 113.785 458.797 113.689 461.511C112.255 461.373 112.964 461.617 111.731 460.142C106.771 438.628 116.053 403.132 121.15 381.705C136.715 316.27 159.322 252.27 184.313 189.893C189.205 177.681 193.968 163.604 199.339 151.796C160.911 166.031 118.274 186.238 81.8383 205.356C71.3938 210.84 61.0108 216.44 50.6916 222.155C31.0701 233.254 22.9371 243.345 9.48133 220.718C3.29683 210.319 -8.27043 202.831 9.34482 193.164C76.5771 156.269 149.218 125.432 221.785 100.657C224.464 95.5864 226.175 91.203 228.31 85.9045C238.096 81.7927 248.161 83.8955 257.821 87.6584Z" fill="#F5F1E8"/>
<path d="M1134.39 137.823C1135.1 135.921 1135.88 134.041 1136.7 132.185C1140.69 123.208 1172.14 60.5677 1179.35 58.1604C1184.26 56.5213 1190.92 58.8056 1195.39 60.9181C1199.71 62.9608 1203.54 65.567 1205.07 70.3629C1205.71 72.3884 1205.94 74.7117 1205.32 76.7665C1202.79 85.0425 1196.42 93.8661 1192.17 101.478C1186.71 111.305 1181.58 121.308 1176.78 131.472C1206.56 129.174 1235.8 127.626 1265.58 131.362C1279.24 133.074 1288.4 133.808 1298.92 143.314C1289.13 141.413 1282.84 143.498 1274.64 142.15C1269.44 141.176 1262.88 140.047 1258.66 143.597L1259.12 143.837C1257.84 145.996 1258.72 145.233 1256.29 146.125C1223.32 149.233 1195.36 152.72 1162.67 160.064C1149.9 185.974 1099.37 288.551 1099.73 310.589C1099.76 312.519 1099.93 313.145 1101.31 314.412C1110.27 316.071 1155.44 290.88 1166.84 285.496C1198.13 270.716 1219.36 260.9 1254.38 257.519C1247.19 262.579 1240.38 268.472 1232.34 272.227C1229.22 273.687 1226.18 275.296 1223.19 277.005C1228.19 275.509 1233.44 273.528 1238.38 271.766C1228.44 280.398 1221.6 281.536 1211.97 287.789C1184.38 305.677 1157.57 325.154 1128.41 340.607C1116.84 346.436 1101.44 350.658 1088.81 345.971C1053.99 333.057 1066.8 294.206 1075.77 268.71C1069.31 277.899 1023.3 337.951 1014.5 338.983C962.314 345.1 1002.58 275.036 1012.66 254.348C992.877 272.153 975.762 291.055 960.342 312.746C956.689 317.883 945.192 342.065 942.034 343.743C939.747 344.958 936.935 344.98 934.497 344.265C929.78 342.881 923.314 337.783 921.199 333.316C917.742 325.995 923.952 312.733 926.464 305.653C916.414 317.361 893.479 346.078 880.707 352.548C876.304 354.781 871.43 355.43 866.697 353.747C860.967 351.71 855.837 346.914 853.324 341.392C849.357 332.66 853.114 323.978 856.324 315.667C861.049 303.453 896.119 230.378 905.562 226.661C910.662 224.654 918.004 226.203 922.812 228.399C925.999 229.853 928.992 232.063 930.17 235.495C931.077 238.113 931.024 240.748 930.012 243.32C925.932 253.66 918.035 264.187 912.567 273.973C904.182 288.993 896.817 304.345 889.212 319.756C903.147 308.383 930.267 285.584 940.377 271.246C947.944 260.516 964.212 215.249 974.487 211.341C979.654 209.378 985.872 210.881 990.664 213.214C993.627 214.658 997.167 216.723 998.157 220.065C1000.53 228.056 991.587 240.401 987.747 247.302C1002.15 233.151 1033.11 196.962 1053.29 216.292C1063.76 226.321 1049.3 247.604 1044.23 258.457C1037.36 273.161 1030.53 286.371 1024.51 301.413C1045.12 281.611 1062.57 262.909 1079.73 239.932C1083.49 234.9 1093.29 223.331 1095.7 218.343C1103.42 202.411 1110.41 185.953 1118.19 169.911C1101.85 174.365 1085.56 179.001 1069.32 183.816C1063.51 185.59 1056.45 187.891 1050.95 189.675C1031.87 195.866 1034.07 194.263 1023.65 179.595C1012.09 163.317 1026.47 163.784 1037.97 160.191C1069.46 150.353 1101.76 142.425 1134.39 137.823Z" fill="#F5F1E8"/>
<path d="M546.365 184.686C553.275 183.856 561.17 186.061 567.64 188.434C587.341 195.658 589.875 211.824 581.782 230.162C569.477 258.043 520.35 309.878 487.14 294.893C483.823 304.725 478.497 318.843 481.08 329.167C481.669 331.521 482.905 333.921 485.08 335.16C498.952 343.066 562.975 296.519 575.657 288.363C585.832 281.819 596.503 275.909 606.961 269.822C612.386 266.665 619.024 261.836 625.114 260.364L625.699 261.03C624.027 264.309 620.66 265.339 619.139 267.539C612.256 277.494 600.262 284.509 592.742 293.225L601.033 287.858L601.401 288.086C590.191 299.938 577.441 309.304 565.701 320.233C538.915 345.171 494.914 384.189 459.271 351.111C449.808 342.33 448.051 332.211 447.665 319.776C432.558 336.12 406.046 387.867 384.016 350.33C378.751 341.358 384.188 325.514 387.223 316.181C377.713 329.5 357.549 352.936 346.374 364.006C342.39 367.829 338.846 370.848 333.596 372.745C327.984 374.773 322.18 374.544 316.796 371.964C309.809 368.617 302.584 362.186 300.091 354.658C292.381 331.368 338.215 255.648 349.8 231.962C353.455 229.643 354.512 229.33 358.693 228.033C368.247 230.069 386.707 234.537 379.598 247.868C364.254 276.644 346.398 306.266 336.064 337.451C369.537 310.255 398.98 262.879 424.924 228.012C429.146 222.337 435.268 209.553 440.176 205.832C448.352 199.632 474.841 204.178 468.194 219.406C449.295 254.057 432.214 287.567 418.774 324.758C425.578 319.316 452.132 293.872 454.389 286.96C467.74 246.054 501.663 195.704 546.365 184.686ZM497.237 274.848C514.484 266.258 527.902 255.563 539.967 240.364C545.345 233.589 556.231 218.697 555.136 210.092C533.033 218.193 508.535 249.567 498.265 270.451C497.537 271.932 496.913 273.225 497.237 274.848Z" fill="#F5F1E8"/>
<path d="M1195.41 400.784C1155.11 406.323 1106.77 404.653 1065.48 404.32C1014.51 403.686 963.529 404.285 912.582 406.118C868.864 407.8 825.192 410.485 781.594 414.172C766.002 415.653 750.424 417.277 734.862 419.045C725.592 420.089 715.482 422.061 706.167 421.529C701.419 421.259 698.817 420.162 695.682 416.504C693.409 413.846 692.089 410.495 692.509 406.967C692.959 403.13 695.269 399.775 698.352 397.546C705.447 392.429 740.749 389.91 751.174 388.709C881.389 373.702 1017.19 370.238 1147.17 389.251C1154.38 390.385 1161.84 391.402 1168.87 393.257L1168.55 393.557L1169.88 393.779C1166.12 393.758 1164.99 393.663 1161.3 392.941C1157.9 392.46 1149.6 391.225 1146.48 392.325C1148.18 393.821 1158.88 394.568 1161.47 394.533C1171.55 395.03 1186.34 396.732 1195.41 400.784Z" fill="#F5F1E8"/>
<path d="M357.846 178.743C370.832 177.135 388.801 181.316 398.403 190.559C400.367 192.449 400.368 197.074 399.209 197.629C395.042 198.862 386.531 196.042 382.591 196.718C355.394 201.387 322.34 232.038 305.745 252.215C276.099 288.262 236.732 347.951 227.807 393.521C227.108 394.129 226.457 394.576 225.632 395.014C222.173 396.85 218.614 397.469 214.831 396.136C209.384 394.217 200.551 386.568 198.469 381.187C194.419 370.724 230.702 275.049 237.358 256.69C239.792 249.974 241.483 242.904 244.184 236.308C245.184 233.864 247.117 232.545 249.569 231.626C254.757 229.681 261.328 231.488 266.04 233.93C270.956 236.478 273.628 239.129 275.349 244.461C277.536 241.217 279.783 238.014 282.089 234.855C299.513 211.067 327.482 183.421 357.846 178.743Z" fill="#F5F1E8"/>
<path d="M444.254 394.219C472.18 392.908 540.562 395.189 566.44 402.25L554.123 401.875C554.001 401.671 577.14 405.81 580.536 407.017C572.358 408.588 561.064 411.048 552.994 412.015C525.257 415.338 496.877 416 469.031 418.046C425.984 421.208 381.299 424.807 338.698 431.467C305.467 435.197 271.095 442.749 238.353 449.668C231.2 451.18 222.306 454.924 216.069 449.457C210.46 445.519 209.25 434.061 214.713 429.716C219.925 425.57 234.897 422.871 241.584 421.231C307.992 405.066 375.931 396.011 444.254 394.219Z" fill="#F5F1E8"/>
<path d="M860.516 226.695C868.893 226.039 890.673 231.309 890.876 240.985C890.583 241.596 890.231 242.322 889.818 243.163C883.818 243.246 875.516 243.217 869.936 245.326C867.618 246.202 861.003 250.686 858.611 252.444C828.011 274.952 804.431 307.323 784.781 339.5C781.331 345.139 778.616 353.918 775.713 360.048C773.651 364.379 773.778 364.353 769.053 366.142C766.601 366.054 763.991 366.04 761.741 364.942C756.303 362.282 750.221 357.681 748.233 351.705C745.338 343.035 771.904 277.261 777.454 265.649C778.916 262.592 780.491 260.851 783.851 259.83C790.218 257.896 796.983 260.688 802.458 263.766C803.471 265.365 804.603 267.499 805.563 269.184C819.618 248.748 835.856 232.539 860.516 226.695Z" fill="#F5F1E8"/>
<path d="M945.274 169.883C951.004 168.917 968.801 170.784 969.566 178.372C968.171 182.34 939.349 205.744 933.716 211.209C921.889 215.509 907.391 213.563 910.189 196.996C911.959 186.511 921.746 176.88 930.221 171.042C934.879 171.071 940.564 170.349 945.274 169.883Z" fill="#F5F1E8"/>
<path d="M528.494 46.4329C518.631 46.2716 485.01 56.1103 471.066 57.3459L471.123 56.9655C484.947 52.6745 514.003 46.535 528.45 44.3984L528.494 46.4329Z" fill="#F5F1E8"/>
<path d="M548.41 32.6687C543.783 33.1969 538.763 34.4399 533.932 35.0693C537.731 31.1691 567.044 27.2667 573.237 26.707L573.448 28.608C564.383 29.1834 557.194 30.6215 548.41 32.6687Z" fill="#F5F1E8"/>
<path d="M1256.29 146.126C1258.72 145.234 1257.84 145.997 1259.12 143.838L1258.66 143.597C1262.88 140.048 1269.44 141.177 1274.64 142.151C1272.56 142.333 1271.72 141.986 1270.59 143.112C1271.94 143.469 1273.23 143.948 1274.55 144.412C1272.16 146.339 1260.18 145.873 1256.29 146.126Z" fill="#F5F1E8"/>
<path d="M549.299 33.9869C553.038 32.8264 568.533 30.2165 572.321 30.2188L576.728 30.9097C572.808 31.6284 551.514 35.5121 549.299 33.9869Z" fill="#F5F1E8"/>
<path d="M548.41 32.6701C557.194 30.6229 564.384 29.1848 573.449 28.6094L572.321 30.2208C568.533 30.2185 553.038 32.8284 549.299 33.9889L548.41 32.6701Z" fill="#F5F1E8"/>
<path d="M1146.48 392.326C1149.6 391.226 1157.9 392.461 1161.3 392.942L1161.47 394.534C1158.88 394.569 1148.18 393.822 1146.48 392.326Z" fill="#F5F1E8"/>
<path d="M113.689 461.511C113.785 458.797 113.632 456.716 114.709 454.242C116.476 456.531 115.904 461.71 115.784 464.688L114.748 460.343L113.689 461.511Z" fill="#F5F1E8"/>
<path d="M1047.85 478.963V436.781H1066.06C1069.19 436.781 1071.93 437.399 1074.27 438.635C1076.62 439.871 1078.45 441.608 1079.75 443.846C1081.06 446.084 1081.71 448.7 1081.71 451.693C1081.71 454.714 1081.04 457.33 1079.69 459.54C1078.36 461.751 1076.48 463.454 1074.07 464.648C1071.66 465.843 1068.86 466.44 1065.64 466.44H1054.77V457.543H1063.34C1064.68 457.543 1065.83 457.309 1066.78 456.842C1067.74 456.362 1068.47 455.682 1068.98 454.803C1069.5 453.924 1069.76 452.888 1069.76 451.693C1069.76 450.485 1069.5 449.455 1068.98 448.604C1068.47 447.739 1067.74 447.08 1066.78 446.626C1065.83 446.16 1064.68 445.926 1063.34 445.926H1059.3V478.963H1047.85Z" fill="#F5F1E8"/>
<path d="M1005.43 457.875C1005.43 462.571 1004.52 466.532 1002.69 469.759C1000.86 472.972 998.398 475.409 995.295 477.071C992.192 478.718 988.732 479.542 984.915 479.542C981.07 479.542 977.596 478.712 974.493 477.05C971.403 475.375 968.945 472.931 967.119 469.718C965.307 466.491 964.4 462.543 964.4 457.875C964.4 453.179 965.307 449.224 967.119 446.011C968.945 442.784 971.403 440.347 974.493 438.699C977.596 437.038 981.07 436.207 984.915 436.207C988.732 436.207 992.192 437.038 995.295 438.699C998.398 440.347 1000.86 442.784 1002.69 446.011C1004.52 449.224 1005.43 453.179 1005.43 457.875ZM993.648 457.875C993.648 455.348 993.311 453.22 992.638 451.49C991.979 449.746 990.997 448.428 989.693 447.535C988.402 446.629 986.809 446.176 984.915 446.176C983.02 446.176 981.42 446.629 980.116 447.535C978.825 448.428 977.843 449.746 977.17 451.49C976.511 453.22 976.182 455.348 976.182 457.875C976.182 460.401 976.511 462.536 977.17 464.28C977.843 466.01 978.825 467.328 980.116 468.235C981.42 469.127 983.02 469.574 984.915 469.574C986.809 469.574 988.402 469.127 989.693 468.235C990.997 467.328 991.979 466.01 992.638 464.28C993.311 462.536 993.648 460.401 993.648 457.875Z" fill="#F5F1E8"/>
<path d="M883.945 478.963V436.781H895.397V453.259H910.556V436.781H922.008V478.963H910.556V462.486H895.397V478.963H883.945Z" fill="#F5F1E8"/>
<path d="M830.935 449.966C830.825 448.592 830.31 447.521 829.39 446.752C828.484 445.984 827.104 445.599 825.25 445.599C824.069 445.599 823.101 445.743 822.346 446.032C821.604 446.306 821.055 446.684 820.698 447.164C820.341 447.645 820.156 448.194 820.142 448.812C820.115 449.32 820.204 449.78 820.41 450.192C820.63 450.59 820.973 450.954 821.44 451.284C821.906 451.6 822.504 451.888 823.232 452.149C823.959 452.41 824.824 452.643 825.827 452.849L829.287 453.591C831.621 454.085 833.619 454.737 835.281 455.547C836.942 456.357 838.301 457.312 839.359 458.41C840.416 459.495 841.192 460.717 841.686 462.076C842.194 463.436 842.455 464.919 842.469 466.525C842.455 469.299 841.762 471.647 840.388 473.569C839.015 475.492 837.052 476.954 834.498 477.956C831.958 478.959 828.902 479.46 825.332 479.46C821.666 479.46 818.467 478.917 815.734 477.833C813.016 476.748 810.901 475.08 809.391 472.828C807.894 470.562 807.139 467.665 807.125 464.136H818C818.069 465.427 818.391 466.511 818.968 467.39C819.545 468.269 820.355 468.935 821.398 469.388C822.456 469.841 823.712 470.068 825.168 470.068C826.39 470.068 827.413 469.917 828.237 469.615C829.06 469.313 829.685 468.894 830.111 468.358C830.536 467.823 830.756 467.212 830.77 466.525C830.756 465.88 830.543 465.317 830.131 464.836C829.733 464.342 829.074 463.903 828.154 463.518C827.234 463.12 825.991 462.749 824.426 462.406L820.224 461.5C816.49 460.69 813.544 459.337 811.388 457.442C809.246 455.533 808.182 452.931 808.196 449.636C808.182 446.958 808.896 444.617 810.338 442.613C811.794 440.594 813.805 439.022 816.373 437.896C818.954 436.77 821.913 436.207 825.25 436.207C828.655 436.207 831.601 436.777 834.086 437.917C836.571 439.056 838.487 440.663 839.832 442.736C841.192 444.796 841.878 447.206 841.892 449.966H830.935Z" fill="#F5F1E8"/>
</svg>
